<?xml version="1.0" standalone="no"?>
<!DOCTYPE svg PUBLIC "-//W3C//DTD SVG 20010904//EN"
 "http://www.w3.org/TR/2001/REC-SVG-20010904/DTD/svg10.dtd">
<svg version="1.0" xmlns="http://www.w3.org/2000/svg"
 width="100.000000pt" height="100.000000pt" viewBox="0 0 100.000000 100.000000"
 preserveAspectRatio="xMidYMid meet">
<metadata>
Created by potrace 1.11, written by Peter Selinger 2001-2013
</metadata>
<g transform="translate(0.000000,100.000000) scale(0.100000,-0.100000)"
fill="#000000" stroke="none">
<path d="M743 698 c-10 -17 -49 -38 -68 -38 -8 0 -15 -9 -15 -20 0 -20 1 -20
32 -4 21 11 47 15 77 12 25 -3 38 -3 29 -1 -10 3 -18 9 -18 14 0 5 8 9 18 10
11 0 12 2 4 6 -7 3 -19 -1 -27 -7 -12 -10 -16 -9 -21 3 -3 9 -3 21 1 27 3 5 4
10 1 10 -3 0 -9 -6 -13 -12z"/>
<path d="M355 623 c-14 -15 -25 -32 -26 -38 0 -5 -4 0 -9 13 -9 20 -17 23 -72
23 -35 0 -78 1 -97 1 -24 1 -39 -5 -53 -21 -20 -26 -24 -91 -7 -122 7 -14 7
-24 0 -33 -5 -6 -10 -41 -9 -76 1 -68 20 -99 62 -100 22 0 65 39 67 60 0 8 5
3 11 -12 8 -23 16 -28 43 -28 37 0 44 11 47 73 1 39 2 38 7 -13 l6 -55 148 -3
c106 -2 147 1 147 9 0 8 4 9 13 0 9 -7 55 -10 128 -8 l114 2 1 75 c1 69 -1 77
-24 97 -20 17 -29 19 -39 11 -10 -8 -20 -8 -39 1 -15 6 -23 7 -19 1 7 -11 -8
-14 -19 -3 -10 10 -87 13 -81 3 3 -5 1 -11 -4 -14 -17 -11 -39 5 -44 30 -4 22
-3 23 12 11 22 -20 39 -11 33 18 -2 14 -8 22 -13 19 -5 -3 -12 2 -15 10 -3 9
-11 13 -17 9 -6 -4 -8 0 -4 10 14 38 -2 47 -85 47 -57 0 -84 4 -94 15 -22 22
-40 19 -69 -12z m65 -3 c0 -5 6 -10 14 -10 9 0 12 -8 8 -25 -4 -21 -8 -24 -31
-19 -24 6 -24 5 7 -15 35 -22 41 -50 17 -75 -18 -18 -20 -30 -2 -23 15 5 22
-68 8 -78 -7 -4 -7 -15 -1 -31 15 -38 12 -44 -15 -44 -17 0 -29 7 -35 23 l-9
22 0 -22 c-1 -18 -7 -23 -26 -23 -24 0 -25 3 -25 55 0 48 -2 55 -20 55 -18 0
-20 -7 -20 -55 0 -52 -1 -55 -25 -55 -24 0 -25 3 -25 55 l0 55 -42 0 c-41 0
-42 0 -20 -16 26 -18 31 -71 7 -80 -8 -4 -15 -12 -15 -20 0 -20 -31 -17 -58 5
-26 23 -20 51 12 51 20 0 19 1 -4 13 -30 15 -38 58 -14 81 15 16 15 18 0 35
-20 22 -21 80 0 109 11 16 25 22 55 22 35 0 39 -3 39 -25 0 -20 -5 -25 -25
-25 -21 0 -25 -5 -25 -30 0 -26 3 -29 25 -28 20 2 27 10 35 38 5 19 10 43 10
53 0 15 7 18 42 15 l42 -3 13 -65 c7 -35 11 -71 8 -78 -2 -7 0 -10 5 -7 6 3
10 17 10 31 0 21 3 24 28 19 l27 -6 -26 15 c-43 25 -46 57 -10 97 17 19 61 25
61 9z m100 -35 c0 -14 5 -25 10 -25 6 0 10 11 10 25 0 20 5 25 25 25 24 0 25
-2 25 -74 0 -79 5 -86 55 -86 21 0 25 -7 35 -57 6 -32 13 -62 15 -68 3 -10 9
101 6 118 -1 5 12 -1 28 -12 34 -25 38 -25 38 -7 0 8 -6 12 -14 9 -9 -3 -11 0
-7 10 8 22 34 9 35 -17 1 -18 2 -18 12 7 11 26 31 34 53 19 7 -4 13 -38 15
-77 4 -66 3 -70 -18 -73 -19 -3 -23 2 -24 25 -1 28 -1 28 -8 3 -8 -31 -50 -41
-52 -13 -1 15 -2 15 -6 2 -6 -24 -99 -24 -113 0 -9 15 -11 14 -24 -2 -11 -15
-26 -17 -82 -15 l-69 3 -2 153 -3 152 30 0 c25 0 30 -4 30 -25z m-322 -47 c-7
-19 -38 -22 -38 -4 0 10 9 16 21 16 12 0 19 -5 17 -12z m22 -153 c0 -8 -2 -15
-4 -15 -2 0 -6 7 -10 15 -3 8 -1 15 4 15 6 0 10 -7 10 -15z"/>
<path d="M250 470 c0 -5 7 -10 16 -10 8 0 12 5 9 10 -3 6 -10 10 -16 10 -5 0
-9 -4 -9 -10z"/>
<path d="M201 444 c0 -11 3 -14 6 -6 3 7 2 16 -1 19 -3 4 -6 -2 -5 -13z"/>
<path d="M520 485 c0 -14 5 -25 10 -25 6 0 10 11 10 25 0 14 -4 25 -10 25 -5
0 -10 -11 -10 -25z"/>
<path d="M560 436 c0 -18 -7 -26 -22 -29 l-23 -4 23 -2 c15 -1 22 -7 22 -21 0
-14 -7 -20 -22 -21 -22 -1 -22 -1 2 -8 27 -8 30 -3 44 72 6 30 4 37 -9 37 -9
0 -15 -9 -15 -24z"/>
<path d="M744 615 c3 -8 0 -14 -6 -12 -20 4 -19 -22 2 -33 11 -6 18 -16 14
-22 -4 -7 -9 -6 -15 3 -4 7 -11 10 -15 6 -11 -10 38 -55 54 -49 16 5 16 19 0
25 -7 2 -5 3 4 2 10 -2 22 2 27 9 13 15 -3 41 -19 31 -9 -6 -9 -3 -1 13 9 18
8 23 -8 32 -28 14 -44 12 -37 -5z"/>
<path d="M644 589 c-3 -6 -1 -16 4 -21 8 -8 11 -5 9 11 -1 24 -3 25 -13 10z"/>
<path d="M830 533 c0 -39 12 -54 45 -57 21 -3 48 32 40 51 -5 10 -8 20 -7 23
0 3 -8 6 -19 6 -10 0 -19 -5 -19 -10 0 -5 -9 -1 -20 9 -20 18 -20 17 -20 -22z
m49 -20 c0 -11 -3 -13 -6 -5 -2 6 -9 10 -14 6 -5 -3 -9 0 -9 5 0 6 7 11 15 11
8 0 15 -8 14 -17z"/>
</g>
</svg>
